<?xml version="1.0" encoding="UTF-8" standalone="no"?>
<svg
   width="400"
   height="319"
   viewBox="0 0 400 319"
   fill="none"
   version="1.1"
   id="svg894"
   sodipodi:docname="logo.svg"
   inkscape:version="1.1 (c68e22c387, 2021-05-23)"
   inkscape:export-filename="P:\projects\browserbot\packages\browserbot.io\src\assets\img\robot.png"
   inkscape:export-xdpi="240"
   inkscape:export-ydpi="240"
   xmlns:inkscape="http://www.inkscape.org/namespaces/inkscape"
   xmlns:sodipodi="http://sodipodi.sourceforge.net/DTD/sodipodi-0.dtd"
   xmlns="http://www.w3.org/2000/svg"
   xmlns:svg="http://www.w3.org/2000/svg">
  <defs
     id="defs898" />
  <sodipodi:namedview
     id="namedview896"
     pagecolor="#000000"
     bordercolor="#666666"
     borderopacity="1.0"
     inkscape:pageshadow="2"
     inkscape:pageopacity="0"
     inkscape:pagecheckerboard="0"
     showgrid="false"
     showborder="true"
     inkscape:zoom="3.7796852"
     inkscape:cx="155.96537"
     inkscape:cy="158.08195"
     inkscape:window-width="1920"
     inkscape:window-height="1009"
     inkscape:window-x="1912"
     inkscape:window-y="-8"
     inkscape:window-maximized="1"
     inkscape:current-layer="svg894" />
  <g
     id="g14934"
     inkscape:export-filename="P:\projects\browserbot\packages\browserbot.io\src\assets\img\robot.png"
     inkscape:export-xdpi="240"
     inkscape:export-ydpi="240">
    <path
       d="m 356.33166,179.31407 c 17.297,0 31.32,-14.022 31.32,-31.32 0,-17.298 -14.023,-31.32 -31.32,-31.32 -17.298,0 -31.32,14.022 -31.32,31.32 0,17.298 14.022,31.32 31.32,31.32 z"
       fill="#ffffff"
       fill-opacity="0.23"
       id="path862" />
    <path
       d="m 46.192331,279.25933 c 9.248086,9.19291 20.820427,15.70085 33.47994,18.82967 -0.342237,0.4918 -0.709176,0.96508 -1.100405,1.41789 -2.064049,2.42623 -4.660766,4.3411 -7.588262,5.59721 -3.464497,1.48488 -7.2703,1.98885 -11.001212,1.4579 -3.731889,-0.53116 -7.246144,-2.07622 -10.159039,-4.46814 -2.91408,-2.39114 -5.114466,-5.53686 -6.362189,-9.09325 -1.247722,-3.55638 -1.494871,-7.38757 -0.714538,-11.0749 l 0.687785,-3.25002 z"
       fill="#ffffff"
       id="path864" />
    <path
       d="m 152.68924,282.12304 0.35497,2.32203 c 0.69303,4.52018 -0.14009,9.14215 -2.36804,13.1367 -2.22696,3.9944 -5.72202,7.13159 -9.93137,8.9182 -4.21035,1.78677 -8.89501,2.1185 -13.31496,0.94596 -4.4201,-1.17353 -8.32282,-3.78678 -11.09257,-7.42602 -0.37869,-0.48535 -0.73213,-0.99074 -1.05688,-1.51368 0.59751,-0.0752 1.18491,-0.15685 1.77999,-0.24783 13.13585,-1.9919 25.46655,-7.57639 35.62886,-16.13536 z"
       fill="#ffffff"
       id="path866" />
    <path
       d="m 167.03466,44.802369 c -0.618,-0.0906 -1.245,-0.1483 -1.871,-0.1895 7.118,16.4042 7.611,34.9266 1.376,51.6864 0.627,-0.0742 1.245,-0.1731 1.863,-0.2885 6.036,-1.1696 11.461,-4.4432 15.31,-9.238 3.848,-4.7949 5.871,-10.7999 5.706,-16.946 -0.164,-6.1462 -2.504,-12.0346 -6.603,-16.6171 -4.099,-4.5825 -9.691,-7.5617 -15.781,-8.4073 z"
       fill="#ffffff"
       id="path868" />
    <path
       d="m 38.135654,44.612869 c -0.626,0.0412 -1.253,0.0989 -1.871,0.1895 -6.09,0.8456 -11.682,3.8248 -15.781,8.4073 -4.099,4.5825 -6.439,10.4709 -6.604,16.6171 -0.164,6.1461 1.858,12.1511 5.707,16.946 3.848,4.7949 9.274,8.0685 15.31,9.238 0.618,0.1154 1.236,0.2143 1.863,0.2885 -6.235,-16.7598 -5.742,-35.2822 1.376,-51.6864 z"
       fill="#ffffff"
       id="path870" />
    <path
       d="M 167.03466,44.802469 C 156.68107,19.208728 131.33196,40.623847 103.72378,40.585564 76.371714,39.897885 48.52369,17.441576 37.325541,42.405716 25.443906,67.296054 30.101276,98.85379 48.665992,119.25104 c 17.938588,20.67292 48.402157,29.06312 74.395628,20.48972 26.39004,-8.01579 46.54934,-32.73833 49.0866,-60.2024 1.24142,-11.764722 -0.53804,-23.827095 -5.11356,-34.735891 z m -0.495,51.4968 C 156.95564,123.15835 126.73638,139.23307 98.199387,138.46855 70.188832,138.49632 46.1031,122.52885 36.731455,96.140172 26.455965,69.52478 35.062462,37.194234 57.14856,19.160815 c 21.198185,-18.2545655 53.72751,-21.4622529 78.03737,-7.5555 25.02647,13.411101 39.63442,43.322779 34.85662,71.3038 -0.71725,4.565263 -1.89271,9.058815 -3.50289,13.390154 z"
       fill="#ffffff"
       id="path872"
       sodipodi:nodetypes="cccccccccccccc" />
    <path
       d="m 93.187654,112.29707 8.242006,1.237 8.243,-1.237"
       stroke="#ffffff"
       stroke-width="0.824214"
       id="path876"
       style="fill:#ff6262;fill-opacity:1;stroke:#ff6262;stroke-opacity:1" />
    <path
       d="m 152.89758,50.53058 c -9.43837,2.067879 -20.24941,-3.796851 -28.69969,2.571258 -6.35307,6.561948 -4.85299,16.580375 -4.39443,24.917665 -0.38637,6.625335 3.80937,13.194994 11.04115,12.962954 8.38923,-0.05178 18.54918,2.604354 25.16733,-4.095597 3.72195,-5.812553 1.50369,-13.160809 2.4587,-19.640436 -0.0708,-5.928173 -1.21259,-12.354537 -5.57306,-16.715844 z"
       fill="#ff6262"
       id="path878"
       style="stroke-width:1.39658" />
    <path
       d="m 100.90134,169.40741 c -15.768905,0.25648 -31.576383,-10.14675 -47.089591,-3.20253 -9.995861,4.89172 -10.323013,18.95326 -4.928072,27.40226 6.758268,12.17672 14.042016,27.11197 7.809016,40.98311 -4.719522,10.43716 -14.354924,19.98078 -12.432308,32.32533 3.077564,10.56045 13.593969,16.1073 22.324613,21.46079 27.324839,14.27047 63.743202,9.99503 85.884182,-11.842 6.2583,-7.17904 6.45229,-18.90599 -0.26957,-25.86043 -7.32428,-10.85588 -13.7368,-24.86331 -8.20723,-37.88369 3.51805,-11.88858 15.29193,-21.37202 13.23361,-34.70664 -2.15242,-11.77167 -16.31966,-16.88149 -26.86131,-13.72319 -9.85418,1.48522 -19.37618,5.32415 -29.46334,5.04699 z m 38.03216,115.19094 c -33.59621,22.0065 -84.311464,7.87857 -102.167561,-27.96487 -17.468213,-32.58983 -5.50739,-78.18548 27.016313,-96.52851 30.472021,-18.30776 74.587868,-10.97078 95.438388,18.50759 18.73918,25.02476 20.00159,62.67754 0.14567,87.46881 -5.53923,7.40154 -12.43034,13.84912 -20.43281,18.51698 z"
       fill="#ffffff"
       id="path880"
       sodipodi:nodetypes="ccscccscsccccccsssccccc" />
    <path
       d="M 116.67065,195.75763 H 84.251649 c -2.259,0 -4.426,-0.897 -6.023,-2.494 -1.597,-1.597 -2.494,-3.764 -2.494,-6.022 0,-2.259 0.897,-4.426 2.494,-6.023 1.597,-1.597 3.764,-2.495 6.023,-2.495 h 32.419001 c 2.259,0 4.425,0.898 6.022,2.495 1.597,1.597 2.495,3.764 2.495,6.023 0,2.258 -0.898,4.425 -2.495,6.022 -1.597,1.597 -3.763,2.494 -6.022,2.494 z"
       fill="#ffffff"
       id="path882" />
    <path
       d="m 86.412649,191.56363 c 2.387,0 4.322,-1.935 4.322,-4.322 0,-2.388 -1.935,-4.323 -4.322,-4.323 -2.387,0 -4.323,1.935 -4.323,4.323 0,2.387 1.936,4.322 4.323,4.322 z"
       fill="#616161"
       id="path884" />
    <path
       d="m 100.46065,191.56363 c 2.387,0 4.323,-1.935 4.323,-4.322 0,-2.388 -1.936,-4.323 -4.323,-4.323 -2.387001,0 -4.322001,1.935 -4.322001,4.323 0,2.387 1.935,4.322 4.322001,4.322 z"
       fill="#616161"
       id="path886" />
    <path
       d="m 114.50865,191.56363 c 2.388,0 4.323,-1.935 4.323,-4.322 0,-2.388 -1.935,-4.323 -4.323,-4.323 -2.387,0 -4.322,1.935 -4.322,4.323 0,2.387 1.935,4.322 4.322,4.322 z"
       fill="#4e4595"
       id="path888" />
    <path
       d="m 337.98066,132.16407 c 4.84,-5.633 11.479,-8.328 18.07,-8.328 8.541,0 17,4.528 21.346,13.055 -5.421,0.002 -13.911,0 -18.51,0 -3.334,0.002 -5.487,-0.074 -7.82,1.153 -2.741,1.442 -4.81,4.117 -5.531,7.259 z m 10.178,15.575 c 0,4.382 3.563,7.947 7.943,7.947 4.381,0 7.944,-3.565 7.944,-7.947 0,-4.382 -3.563,-7.95 -7.944,-7.95 -4.38,0 -7.943,3.568 -7.943,7.95 z m 11.027,10.403 c -4.458,1.327 -9.677,-0.145 -12.535,-5.077 -2.181,-3.767 -7.945,-13.81 -10.567,-18.375 -2.649,4.063 -3.874,8.553 -3.874,12.961 0,10.852 7.422,21.213 19.267,23.54 z m 4.298,-18.353 c 3.713,3.454 4.524,9.047 2.006,13.383 -1.894,3.269 -7.943,13.477 -10.875,18.421 14.319,0.883 25.4,-10.676 25.4,-23.846 0,-2.616 -0.439,-5.299 -1.375,-7.958 z"
       fill="#ffffff"
       id="path892" />
    <path
       d="m 51.086183,51.278904 c 10.00624,2.067879 21.46774,-3.796851 30.42644,2.571258 6.73531,6.561948 5.14497,16.580375 4.65882,24.917665 0.40962,6.625335 -4.03856,13.194994 -11.70545,12.962954 -8.89398,-0.05178 -19.66521,2.604354 -26.68155,-4.095597 -3.94589,-5.812553 -1.59416,-13.160809 -2.60663,-19.640436 0.0751,-5.928173 1.28554,-12.354537 5.90837,-16.715844 z"
       fill="#ff6262"
       id="path8805"
       style="stroke-width:1.43798" />
    <path
       style="fill:none;fill-rule:evenodd;stroke:#ffffff;stroke-width:3;stroke-linecap:butt;stroke-linejoin:miter;stroke-miterlimit:4;stroke-dasharray:none;stroke-opacity:0.227451"
       d="m 187.08086,64.355817 c 48.15621,20.543669 69.6829,83.660813 47.97721,130.477073 -12.59238,31.59034 -34.91395,60.48463 -36.43529,95.57921 -0.88227,14.96952 15.36525,23.71931 28.59604,22.81982 22.0685,-1.33856 40.78379,-14.84187 58.42393,-26.9252 10.36643,-6.85694 20.30192,-14.9826 32.06866,-19.24688 19.69823,-4.37495 37.70159,22.94213 24.15335,38.65794 -11.38932,11.91858 -31.94684,6.5792 -40.8957,-5.75297 -7.30349,-10.45492 -14.65419,-21.14903 -19.71997,-32.90534 -6.50379,-15.04558 -4.90892,-33.21711 5.41791,-46.19159 13.9188,-19.08371 32.66559,-27.28091 51.15441,-41.14176 3.43734,-2.19787 3.2868,-1.8482 4.27948,-3.80008"
       id="path9220"
       sodipodi:nodetypes="cccccccccccc" />
  </g>
</svg>
